<?xml version="1.0" encoding="UTF-8"?>
<svg id="WDN_Shape" data-name="WDN Shape" xmlns="http://www.w3.org/2000/svg" xmlns:xlink="http://www.w3.org/1999/xlink" viewBox="0 0 2001 2001">
  <defs>
    <style>
      .cls-1 {
        fill: #fff;
      }

      .cls-2 {
        clip-path: url(#clippath-33);
      }

      .cls-3 {
        clip-path: url(#clippath-32);
      }

      .cls-4 {
        isolation: isolate;
      }

      .cls-5 {
        clip-path: url(#clippath-7);
      }

      .cls-6 {
        clip-path: url(#clippath-30);
      }

      .cls-7 {
        clip-path: url(#clippath);
      }

      .cls-8 {
        fill: none;
      }

      .cls-9 {
        clip-path: url(#clippath-31);
      }
    </style>
    <clipPath id="clippath">
      <path class="cls-8" d="m641.09,1130.71c1.05,1.48,2.42,2.73,4.13,3.75s3.75,1.78,6.13,2.3,5.09.78,8.14.78,6.45-.27,10.19-.82c44.58,62.98,95.05,121.81,148.13,174.25,53.06,52.43,108.68,98.42,163.59,135.76,54.86,37.3,108.96,65.94,159.04,83.71,50.01,17.74,96,24.63,134.71,18.5,6.64-1.05,12.95-2.47,18.95-4.24,5.99-1.77,11.67-3.89,17.02-6.35s10.39-5.25,15.1-8.37c4.71-3.12,9.11-6.56,13.19-10.31,19.68-18.1,32.02-43.41,37.17-74.42,5.14-30.96,3.1-67.61-5.97-108.42-9.06-40.77-25.13-85.7-48.09-133.31-22.93-47.57-52.74-97.82-89.3-149.27-44.11-62.08-93.91-120.08-146.21-171.83-52.31-51.76-107.16-97.31-161.38-134.46-54.26-37.18-107.91-65.98-157.75-84.17-49.91-18.22-96.02-25.82-135.11-20.56-6.99.94-13.64,2.28-19.95,3.99s-12.28,3.82-17.91,6.28-10.92,5.3-15.86,8.48-9.56,6.72-13.82,10.6c-19.63,17.82-32.07,42.78-37.42,73.41-5.35,30.68-3.58,67.06,5.22,107.67,8.81,40.66,24.67,85.56,47.46,133.21,22.82,47.7,52.58,98.14,89.18,149.83-3.74.55-7.13.82-10.19.82s-5.77-.26-8.14-.78-4.42-1.29-6.13-2.3-3.08-2.27-4.13-3.75c-12.33-17.68-28.71-41.33-39.98-59.71-7.82-12.74-18.18-29.77-25.78-42.65s-17.5-31.2-24.56-44.81c-14.82-28.59-28.41-57.83-40.21-87.35-6.02-15.06-13.58-35.34-18.46-50.8-6.94-22-15.05-51.74-19.84-74.31-3.43-16.16-6.8-37.97-8.54-54.4-1.05-9.95-1.9-23.28-2.44-33.28s-.45-23.74-.09-33.91c.31-8.84,1.12-20.62,2.05-29.42,1.67-15.76,4.77-36.79,9.07-52.04s10.19-34.93,16.13-49.32c2.95-7.15,7.31-16.5,10.75-23.43,5.16-10.4,12.8-23.95,19.55-33.4,8.55-11.96,20.37-27.67,30.35-38.45,5.05-5.46,12.15-12.38,17.53-17.51,6.42-6.12,15.59-13.63,22.65-19s16.91-12.22,24.53-16.88c6.28-3.84,14.78-8.8,21.36-12.12,8.35-4.21,19.64-9.53,28.34-12.95,7.08-2.78,16.6-6.32,23.88-8.49,10.18-3.03,23.85-6.81,34.27-8.81,10.7-2.05,25.05-4.48,35.9-5.44,8.72-.78,20.36-1.75,29.11-1.85s20.62-.33,29.43.28c15.59,1.08,36.39,2.81,51.81,5.36,10,1.66,23.27,4.21,33.15,6.46,13.55,3.09,31.55,7.64,44.69,12.17,21.76,7.49,50.56,18.14,71.71,27.19,13.08,5.6,30.15,13.94,42.82,20.41s28.18,14.77,39.93,21.68,26.63,15.74,37.83,22.82c11.83,7.47,27.46,17.67,38.9,25.72s26.61,18.82,37.79,27.18,26.77,20.34,37.92,29.46c22.7,18.57,52.25,44.22,73.94,63.98,11.12,10.13,25.52,24.1,36.21,34.69,10.8,10.7,25.05,25.12,35.4,36.26,10.45,11.25,24.36,26.29,34.53,37.81,13.72,15.54,38.12,43.76,66.1,80.22,9.55,12.45,21.97,29.29,31.11,42.05,14.91,20.79,33.54,49.39,47.34,70.94,7.87,12.29,17.54,29.19,24.9,41.79s16.94,30.63,23.77,43.99,16.14,32.3,22.34,46.47c5.13,11.72,11.89,27.38,16.58,39.28,5.84,14.82,13.39,34.72,17.9,50,3.26,11.04,8.01,25.66,10.75,36.84,4.14,16.87,9.44,39.45,12.16,56.61,3.13,19.73,5.75,46.28,6.74,66.23.51,10.17.17,23.77-.08,33.96-.21,8.73-1.21,20.35-2.18,29.03-1.76,15.8-5.48,36.75-9.44,52.15-9.07,35.21-20.29,58.26-27.23,71.94-5.3,10.46-13.64,23.73-20.03,33.55-3.99,6.13-9.94,13.87-14.52,19.56-15.29,18.99-32.75,36.15-51.89,50.98-5.81,4.5-13.79,10.21-19.93,14.25-7.58,4.98-17.94,11.26-26.02,15.37-13.33,6.78-31.68,14.73-45.76,19.79-9.51,3.42-22.55,6.94-32.36,9.38-7.7,1.92-18.11,3.81-25.93,5.15-12.1,2.07-28.44,3.64-40.69,4.28-17.55.91-41.05.33-58.56-1.15-17.27-1.46-40.16-5.03-57.13-8.57-13.87-2.9-32.24-7.48-45.78-11.66-10.87-3.36-25.33-8.01-36.01-11.95-12.83-4.74-29.85-11.34-42.32-16.97-23.05-10.4-53.24-25.51-75.45-37.61-12.64-6.89-29.1-16.79-41.33-24.39-35.13-21.82-63.42-42.32-78.08-53.17-26.35-19.49-53.11-40.97-76.55-61.18-11.4-9.83-26.49-23.08-37.47-33.38s-25.95-24.41-36.8-35.14c-15.61-15.44-41.16-41.3-71.15-75.3-13.77-15.61-38.64-44.39-67.12-81.68-9.68-12.67-22.05-29.97-31.5-42.81Z"/>
    </clipPath>
    <clipPath id="clippath-7">
      <path class="cls-8" d="m1327.44,1503.79c-7.84-10.48-14.53-21.49-20.07-32.86-2.77-5.69-5.25-11.46-7.45-17.3-2.19-5.84-4.1-11.76-5.72-17.71-4.87-17.87-7.14-36.14-6.85-54.21.2-12.05,1.54-24.01,4.02-35.7,2.48-11.69,6.1-23.11,10.86-34.09,4.13-9.51,9.27-18.6,15.11-27.32-.04-.4-.07-.8-.1-1.18-.05-.54-.1-1.04-.16-1.59-.09-.77-.19-1.58-.3-2.4-.05-.39-.1-.78-.15-1.16-.17-1.21-.35-2.44-.55-3.69-.18-1.14-.38-2.27-.58-3.39-.08-.43-.15-.85-.24-1.31-.09-.51-.19-.99-.28-1.48-.13-.67-.26-1.36-.41-2.09-.21-1.01-.43-2.06-.67-3.17-.86-3.9-1.9-8.22-2.81-11.65-.35-1.35-.77-2.83-1.18-4.31-.06-.22-.11-.41-.17-.63-1.06-3.7-2.82-9.73-5.56-17.81-1.7-4.75-3.75-10.56-5.71-15.79-.36-.97-.71-1.83-1.06-2.74-.5-1.28-1.01-2.59-1.54-3.92-.62-1.55-1.25-3.11-1.94-4.78-.04-.08-.07-.16-.1-.24-.44-1.07-.91-2.17-1.36-3.27-2.38-5.61-5.04-11.67-7.24-16.56-.96-2.03-1.96-4.14-3.01-6.3-4.2-8.66-9.09-18.24-13.91-27.43-3.44-6.57-6.83-12.9-9.91-18.6-4.09-7.28-8.25-14.43-11.96-20.55-11.29-18.58-27.36-42.74-39.8-60.58-6.41-8.95-14.92-20.54-21.81-29.6-.45-.59-.96-1.26-1.39-1.83-1.77-2.31-3.7-4.79-5.72-7.36-2.95-3.75-6.05-7.64-9.12-11.46-3.25-4.06-6.45-8.03-9.28-11.53-.09-.11-.19-.23-.28-.34-8.67-10.7-18.04-21.51-26.75-31.26-2.08-2.3-4.25-4.71-6.52-7.25-7-7.73-13.29-14.51-17.93-19.51-8-8.2-18.55-19.26-26.69-27.32-.07-.07-.15-.15-.22-.22-7.91-7.82-18.59-17.9-26.71-25.55-.09-.08-.18-.17-.26-.25-9.98-9.07-22.23-19.83-34.09-29.95-6.9-5.9-13.66-11.56-19.78-16.57-.56-.45-1.18-.96-1.72-1.39-7.74-6.18-18.1-14.21-26.15-20.2-5.8-4.31-13.06-9.5-19.65-14.14-2.24-1.58-4.39-3.09-6.38-4.48-.09-.07-.21-.14-.31-.21-.76-.52-1.58-1.09-2.3-1.57-7.16-4.78-16.59-11.04-24.04-15.71-7.08-4.43-16.3-9.86-23.33-13.96-1.16-.68-2.46-1.4-3.74-2.12-.43-.23-.91-.52-1.33-.74-12.39-6.63-29.1-15.17-41.93-20.91-6.14-2.75-14.46-5.87-20.87-8.31-3.59-1.29-7.46-2.61-10.65-3.59-2.03-.62-4.39-1.33-6.78-2-1.51-.41-3.01-.81-4.38-1.15-1.57-.39-2.89-.68-4.21-.97-.85-.18-1.69-.37-2.59-.55-.63-.13-1.19-.22-1.8-.34-4.03,2.22-8.11,4.31-12.28,6.18-5.49,2.47-11.09,4.64-16.77,6.52-17.04,5.63-34.86,8.61-52.84,9.01-6,.13-12.01-.03-18.02-.47-12.02-.89-24.02-2.92-35.83-6.09s-23.43-7.48-34.68-12.9-22.12-11.96-32.44-19.61c-10.31-7.64-20.07-16.39-29.12-26.22-.22.2-.47.38-.69.58,18.18,19.8,39.3,35.21,61.91,46.11s46.71,17.3,70.87,19.09c24.16,1.79,48.38-1.03,71.22-8.57,9.92-3.28,19.56-7.5,28.84-12.57,2.28.43,4.87.96,8.2,1.79,6.43,1.6,14.94,4.12,21.13,6.48,6.45,2.47,15.08,5.69,21.38,8.51,12.8,5.72,29.48,14.24,41.84,20.87,8.46,4.53,19.39,11.2,27.54,16.27,7.55,4.71,17.43,11.27,24.83,16.21,8.61,5.75,19.8,13.85,28.12,20.03,8.09,6.01,18.73,14.25,26.61,20.54,8.56,6.83,19.78,16.19,28.07,23.34,8.37,7.21,19.41,16.96,27.45,24.52,8.21,7.71,19.12,18.02,27.12,25.94,8.15,8.07,18.91,18.95,26.72,27.35,11.57,12.46,33.11,35.65,51.37,58.22,7.33,9.06,17.09,21.16,24.17,30.41,7.12,9.3,16.49,21.8,23.18,31.4,12.42,17.82,28.47,41.96,39.75,60.52,8,13.17,18.04,31.13,25.12,44.84,4.28,8.29,9.8,19.44,13.63,27.95,3.08,6.85,7.1,16.02,9.91,22.98,8.27,20.5,12.37,34.39,14.56,41.99,1.39,4.84,4.83,17.49,6.69,30.27.31,2.17.65,4.88.87,7.26-5.77,8.67-10.88,17.69-14.98,27.13-9.57,22.06-14.56,45.92-14.95,70.14-.39,24.22,3.82,48.79,12.64,72.29,8.83,23.49,22.27,45.9,40.36,65.78.22-.2.41-.43.63-.64-4.48-4.93-8.69-10.03-12.6-15.25Zm16.84-250.74c-.78.77-1.62,1.59-2.49,2.46-1.16,1.17-2.36,2.4-3.53,3.64,2.01-2.03,3.89-4.15,6.02-6.1,0,0,0,0,0,0Z"/>
    </clipPath>
    <clipPath id="clippath-30">
      <path class="cls-8" d="m1437.05,1621.39c-8.56,1.25-20,2.75-28.61,3.47-17.45,1.45-40.87,1.44-58.35.57-13.61-.68-31.73-2.7-45.16-5-17.41-2.98-40.5-7.79-57.51-12.55-10.86-3.04-25.24-7.45-35.92-11.09-14.84-5.06-34.41-12.49-48.78-18.76-23.08-10.08-53.23-24.94-75.42-36.84-13.65-7.32-31.42-17.88-44.61-26.01s-29.14-18.36-41.27-26.77c-23.49-16.28-54.3-38.77-76.66-56.58-11.93-9.51-27.6-22.49-39.18-32.43-25.23-21.67-50.25-44.73-74.65-68.83-14.44-14.26-40.53-40.57-71.22-75.36-10.43-11.82-23.95-27.9-34.07-39.99-10.18-12.16-23.22-28.82-32.85-41.42s-22.44-29.99-31.71-43.09c-2.7-3.82-3.23-9.15-1.65-15.78s5.27-14.56,10.98-23.55,13.47-19.07,23.17-29.99c9.7-10.92,21.36-22.7,34.89-35.09,18.78-17.21,39.43-34.01,60.66-49.65s43.05-30.12,64.19-42.68c21.13-12.56,41.58-23.2,60.08-31.17s35.03-13.27,48.36-15.15c44.76,63.06,95.37,122.01,148.53,174.6,53.16,52.58,108.83,98.75,163.74,136.29,54.86,37.5,108.93,66.35,158.94,84.33,49.94,17.96,95.8,25.07,134.35,19.16,6.61-1.01,12.89-2.39,18.86-4.13s11.6-3.82,16.93-6.24c5.32-2.42,10.32-5.19,15.01-8.27s9.05-6.5,13.09-10.22c19.52-17.95,31.69-43.14,36.65-74.05,4.96-30.86,2.73-67.43-6.52-108.19-9.24-40.71-25.49-85.62-48.62-133.23-23.1-47.57-53.07-97.85-89.78-149.37-44.29-62.16-94.21-120.27-146.6-172.17-52.4-51.91-107.31-97.63-161.53-134.97-54.27-37.38-107.88-66.38-157.65-84.79-49.83-18.44-95.83-26.26-134.76-21.22-6.96.9-13.59,2.2-19.86,3.88s-12.22,3.74-17.81,6.17-10.85,5.23-15.77,8.38-9.49,6.66-13.72,10.5c-19.47,17.67-31.74,42.5-36.91,73.04s-3.22,66.88,5.77,107.44c8.99,40.61,25.03,85.48,47.99,133.13,22.99,47.7,52.91,98.17,89.66,149.94-13.33,1.88-29.87,7.18-48.36,15.15-18.5,7.97-38.95,18.61-60.08,31.17s-42.96,27.04-64.19,42.68-41.87,32.44-60.66,49.65c-13.53,12.39-25.19,24.17-34.89,35.09s-17.45,20.99-23.17,29.99-9.4,16.92-10.98,23.55-1.06,11.96,1.65,15.78c-17.33-25.47-40.17-59.64-56.14-85.99-10.38-17.12-23.36-40.47-32.63-58.21-16.06-30.74-28.95-58.89-39.34-84.37-4.79-11.74-10.69-27.6-15.03-39.52-4.68-12.87-10.26-30.28-13.86-43.5-3.02-11.06-7.02-25.83-9.45-37.04-2.92-13.5-6.41-31.59-8.38-45.26-2.29-15.93-4.44-37.33-4.97-53.42-.6-17.85-.14-41.74,1.58-59.53.84-8.68,2.49-20.2,3.82-28.82s3.99-20.59,6.21-29.29c1.93-7.56,5.12-17.48,7.33-24.97s6.12-17.06,9.12-24.22c5.54-13.21,14.24-30.3,21.67-42.55,7.6-12.53,19.02-28.48,28.46-39.69,13.44-15.96,28.71-30.85,45.83-44.33,6.93-5.46,16.56-12.24,23.94-17.07,6.16-4.04,14.65-9.01,21.15-12.48,8.48-4.53,25.89-13.59,50.68-21.91,9.15-3.07,21.52-6.7,30.94-8.75,10.76-2.35,25.21-5.22,36.15-6.47,17.41-1.99,40.81-3.34,58.32-2.96,11.79.25,27.49,1.43,39.22,2.65,9.95,1.04,23.14,3.09,32.98,4.88,16.89,3.08,39.09,8.78,55.65,13.31,10.88,2.97,25.08,7.95,35.72,11.67,14.46,5.06,33.34,12.92,47.4,18.99,11.34,4.9,26.19,12.04,37.23,17.57,13.05,6.55,30.18,15.82,42.89,23.01,11.52,6.51,26.63,15.63,37.83,22.66,12.28,7.71,28.51,18.25,40.37,26.59s26.61,18.78,37.8,27.12c11.77,8.77,27.35,20.63,38.66,29.99,22.59,18.7,52.1,44.37,73.95,63.94,11.31,10.12,25.75,24.31,36.53,34.99s25.1,25.16,35.46,36.32c10.45,11.25,24.53,26.15,34.53,37.81,10.09,11.77,23.78,27.25,33.54,39.3s22.88,28.3,32.37,40.67,21.9,29.34,31.12,42.04c9.12,12.56,20.72,29.7,29.26,42.67,13.61,20.68,31.2,48.66,43.17,70.33,13.31,24.09,29.99,56.79,42.05,81.53,6.06,12.43,13.13,29.46,18.29,42.29,4.64,11.53,10.35,27.09,14.55,38.79,4.54,12.67,9.58,29.92,13.44,42.82,3.23,10.79,6.6,25.45,9.14,36.42,3.06,13.27,6.2,31.18,8.09,44.67,1.39,9.92,2.79,23.21,3.61,33.2,1.21,14.75,2,34.54,1.18,49.31-.96,17.34-3.38,40.4-5.78,57.6-1.25,8.95-4.11,20.7-6.39,29.45-1.95,7.48-4.91,17.38-7.4,24.7-4.81,14.11-12.46,32.55-19.43,45.72-6.8,12.85-17.35,29.17-25.46,41.24-4.09,6.08-10.24,13.72-15.14,19.16-8,8.87-18.79,20.65-27.76,28.53-11.06,9.72-26.55,21.91-38.87,29.97-12.12,7.93-29.38,16.76-42.34,23.23-6.7,3.34-16.12,6.77-23.11,9.44-8.94,3.41-21.19,7.07-30.44,9.48-9.89,2.58-23.22,5.51-33.33,6.99Z"/>
    </clipPath>
    <clipPath id="clippath-31">
      <polygon class="cls-8" points="721.62 887.88 892.95 1187.87 587.19 1281.35 415.86 981.36 721.62 887.88"/>
    </clipPath>
    <clipPath id="clippath-32">
      <polygon class="cls-8" points="587.19 1281.35 892.95 1187.87 757.75 1366.31 451.99 1459.79 587.19 1281.35"/>
    </clipPath>
    <clipPath id="clippath-33">
      <polygon class="cls-8" points="415.86 981.36 587.19 1281.35 451.99 1459.79 280.66 1159.79 415.86 981.36"/>
    </clipPath>
  </defs>
  <g class="cls-4">
    <g class="cls-4">
      <g class="cls-7">
        <g>
          <path class="cls-1" d="m1212.88,1597.25c-5.85-1.99-6.08-2.07-8.46-2.92,11.04,3.55,25.67,8.61,36.82,11.82l-6.07-1.93-22.28-6.96"/>
          <path class="cls-1" d="m1352.47,1619.21l22.95-2.84c17.9,4.25,38.2,9.07,71.96,3.21l-10.33,1.81c-36.87,4.47-53.7,6.5-99.26,3.13-13.37-1.66-31.22-3.81-44.5-6.09l-.73-.17c1.72-2.27,16.66-.84,40.2,2.22,23.91,3.1,35.79,4.29,54.85,4.79-15.42-1.47-19.09-1.82-35.13-6.06"/>
          <g>
            <path class="cls-1" d="m1627.93,1519.42l1.97-2.21c-.59.66-1.38,1.55-1.97,2.21"/>
            <path class="cls-1" d="m1528.83,1572.45c-29.48,5.56-60.07,4.81-88.62,15.65-22.29,8.47-20.4,17.47-12.02,22.59,20.3,12.41,52.89-.57,66.81-6.11-23.38,4.51-24.77-.93-23.86-2.64,4.35-8.16,65.89-23.61,67.19-16.87.45,2.33-3.24,5.07-3.28,5.09l11.12-5.85c10.67-6.44,24.76-15.29,34.98-22.42.38-.35.78-.96.89-1.46-1.63-.61-1.76-.65-18.61,3.9-12.02,3.25-20.35,5.42-34.62,8.11"/>
          </g>
          <path class="cls-1" d="m1367.9,1477.28c-.51,1.3-1.04,2.58-1.59,3.85s-1.11,2.52-1.69,3.76-1.18,2.46-1.79,3.66-1.25,2.4-1.9,3.57c34.65,25.15,68.24,40.85,128.56,41.46,100.64,22.09,147.63-22.27,166.68-50.68,5.34-8.78,12.48-20.49,17.34-29.54l2.73-5.41c-9.26,16.48-37.44,66.62-122.08,72.45,107.8-37.7,140.64-114.93,150.62-157.61l3.11-24.64c-42.14,166.32-230.3,220.26-339.99,139.14"/>
          <path class="cls-1" d="m1493.96,1364.11c23.23-2.33,84.95-8.53,143.71-54.04,39.42-31.27,57.42-45.54,53.5-3.25-6.97,75.2-103.75,121.99-189.42,122.21l.02,24.52c119.17.21,189.85-67.34,207.04-134.38l-.52-26.36c-4.63,15.71-4.81,16.32-8.74,24.98,6.45-24,8.26-47.12,5.39-68.71-5.5-32.37-15.9-22.88-43.67,2.5-33.26,30.39-78.82,72.01-173.62,84.06l6.32,28.45"/>
          <path class="cls-1" d="m1490.69,1130.84c-97.58,90.87-19.38,150.85,39.76,151.84,81.07,1.36,171.18-84.24,124.79-200.76-20.91-46.16-39.52-43.77-75.94-20.24,5.87,11.95,13.71,27.89,19.58,39.85,46.75-25.62,50.33,38.14,42.9,63.09-21.43,71.99-119.27,103.78-144.33,61.39-16.33-27.62,6.64-50.03,20.36-63.42-5.72-11.71-13.34-27.33-19.06-39.04-2.42,2.19-5.68,5.07-8.07,7.29"/>
          <path class="cls-1" d="m1485.63,819.33c-9.12,13.23-14.69,36.58-.37,58.83,23.74,30.69,50.06,6.33,52.97-12.83,3.33-21.94-23.73-68.52-43.12-56.01-4.05,2.61-7.68,7.39-9.48,10.01m-22.58-29.48c20.83-27.2,38.45-12.18,67.76,29.46,70.19,104.34-12.66,111.63-26.35,108.85-52.42-10.65-76.8-92.08-41.41-138.31"/>
          <path class="cls-1" d="m1170.59,595.91c-22.9,22.61-69.59,82.2-8.68,147.11l30.98,31.14c69.15-68.21,128.49-119.76,162.83-141.43-57.04-56.62-110.91-110.09-185.13-36.82m-33.43-30.28c90.59-86.12,168.98-4.03,259.74,91.04-28.62,17.2-140.08,118.26-206.4,181.15-17.62-18.49-41.2-43.07-59.29-61.09-81.79-84.41-34.74-172.4,5.95-211.09"/>
          <path class="cls-1" d="m961.1,474.22c-31.37,34.45-34.08,79.44-6.03,100.3,50.63,30.78,150.64-64,143.82-99.52-6.2-32.34-81.91-62.14-137.79-.78m-73.63,110.34l-31.01-18c45.35-108.84,121.13-164.96,176.12-172.29l31.6,18.11c-11.9,2.39-14.38,2.89-26.9,7.55,46.79.3,77.52,22.1,87.62,29.27,85.72,67.38-107.07,178.46-142.4,183.02-45.45,5.87-79.13-31.22-76.67-84.44-8.83,16.23-10.67,19.61-18.36,36.77"/>
          <path class="cls-1" d="m770.6,525.14c28.92,10.03,44.81-5.2,69.49-43.14,14.13-21.72,51.65-79.41,113.28-103.03l17.95,8.83c9.39-3.23,20.03-6.89,33.32-8.21l-17.39-8.49c17.29-.51,27.34.05,44.74,7.35l-1.84-.85-12.69-5.73-17.71-7.55c-11.72-4.01-22.79-7.79-42.84-6.74l-34.46-13.25c-9.9.86-21.11,1.83-36,6.74l35.6,13.82c-17.86,7.21-65.31,26.37-108.05,94.32-15.84,24.78-17.76,24.06-49.78,11.96-5.73,13.31-11.15,25.87-16.44,45.26l22.81,8.71"/>
          <path class="cls-1" d="m682.38,374.05c-30.65,33.62-29.64,71.7-6.49,76.67,5.11.44,17.07,1.46,42.69-21.14,14.23-12.56,80.53-78.06,84.59-82.38,7.08-7.52,9.07-11.81,6.86-14.8-7.17-9.72-82.69-7.66-127.64,41.65m-55.94,117.1l-24.08.55c19.4-115.48,97.82-163.66,159.09-169.82,11.59-.62,27.04-1.55,38.65-1.61-15.63.71-18.89.86-33.95,3.99,37.79-5.73,69.23-2.26,84.62.33,8.3,1.69,16.89,3.43,10.5,10.44-.52.57-1.24,1.33-1.79,1.87-21.43,21.06-46.4,38.11-67.48,59.57-25.32,25.77-47.84,54.15-73.89,79.23-2.4,2.31-10.89,10.27-19.52,15.9-35.07,22.86-60.96-3.01-62.26-40.53-5.39,17.56-6.51,21.21-9.87,40.08"/>
          <path class="cls-1" d="m527.01,460.7c-15.56,34.62-7.66,58.84,9.82,52.35q14.13-5.24,67.49-97.8c-6.65,1.74-15.53,4.07-22.18,5.81-32.48,54.96-40.58,48.74-42.55,43.51-.08-.22-3.41-25.56,37.23-57.54.81-.64,86.04-65.16,133.52-76.84-11.27,3.13-26.28,7.41-37.35,11.18-11.35,4.22-111.85,43.42-145.98,119.32"/>
          <path class="cls-1" d="m519.14,679.43l9.16-14.04c-26.2-31.37-42.94-60.3-45.43-107.57,3.38-21.4,8.48-53.75,34.46-93.76-5.61,9.27-13.04,21.67-18.12,31.24l-6.59,13.78-1.73,3.92.97-2.23c-3.51,8.82-8.35,20.52-11.45,29.49-14.19,49.45-1.16,96.28,38.73,139.17"/>
          <polyline class="cls-1" points="461.86 637.59 462.34 629.76 461.12 651.87 461.86 637.59"/>
        </g>
      </g>
    </g>
    <g class="cls-4">
      <g class="cls-5">
        <path class="cls-1" d="m1367.72,1477.15l-7.51,14.4.71.57c.65-1.18,1.28-2.37,1.9-3.57s1.21-2.43,1.79-3.66,1.14-2.49,1.69-3.76,1.08-2.55,1.59-3.85l-.18-.13"/>
      </g>
    </g>
    <g class="cls-4">
      <g class="cls-6">
        <g>
          <path class="cls-1" d="m1005.32,1385.77c-60.66,44.53-111.78-.04-136.35-21.46l-31.61-29.56c35.78-22.79,96.06-78.24,161.24-148.32,50.51,46.64,64.08,59.17,65.26,93.97,1.51,44.9-29.25,83.87-58.54,105.37m37.23,26.98c36.41-27.3,75.35-82.74,65.29-149.13q-6.14-40.52-109.44-142.08c-101.98,106.13-187.25,181.88-203.5,189.46,17.75,17.49,41.52,40.72,59.73,57.73,54.23,48.81,117.94,96.49,187.91,44.02"/>
          <path class="cls-1" d="m1182.88,1530.36c-44.54,24.47-92.47.29-106.09-7.7-21-13.36-24.17-24.23-11.28-38.75,9.52-10.74,52.06-42.86,91.41-51.58,57.52-12.75,81.82,30.9,55.55,71.23-6.9,10.59-17.4,20.11-29.58,26.8m-84.99,15.74l30.64,15.9c69.99,20.28,143.44-44.77,185.19-118.23l-33.26-16.79c-9.99,16.08-12.07,19.43-23.2,34.5,6.46-50.13-25.44-67.72-35.92-73.5-73.26-32.23-219.85,74.33-208.04,101.02,6.12,13.84,64.22,50.56,108.38,60.96-10.8-.59-13.37-.73-23.79-3.86"/>
          <path class="cls-1" d="m1204.42,1594.33c-8.62-3.14-8.72-3.29-9.6-4.67,13.52-3.91,27.85-3.38,41.34-7.46,8.41-2.54,22.19-8.27,34.01-15.32,16.36-9.76,41.05-28.34,65.77-61.41l-18.7-7.79c7.67-10.75,16.36-22.93,25.77-40.53l18.23,7.6c11.13-23,17.21-36.96,24.83-65.52l29.75,11.15c-5.97,24.54-10.18,39.07-22.91,66.2l35.89,11.09c-6.16,12.53-12.52,25.48-23.56,41.31l-36.83-11.38c-14.25,18.54-52.11,67.78-111.8,79.48-9.45,1.79-9.56,1.83-12.3,2.92-.11.37-.26.86-.37,1.23q2.71,2.01,26.16,9.1c-13.91-.87-16.42-1.02-28.88-4.16-11.05-3.54-25.9-7.9-36.82-11.82"/>
          <path class="cls-1" d="m1464.69,1608.24c-28.05,14.21-64.3,19.89-110.8,17.37-7.53-.49-8.06-.72-9.63-1.38q.77-1.45,6.48-3.92c5.73-2.47,19.16-8.26,34.05-16.61,25.16-14.09,47.75-32.18,72.6-46.76,4.08-2.39,10.24-6.01,16.28-8.65,27.73-12.11,34.15-1.34,35.62,3.85,4.09,14.4-11.47,39.32-44.6,56.09m-27.64,13.15l10.33-1.81c63.43-15.07,106.31-54.87,131.07-121.68l-24.32,3.56c-6.67,16.95-8.06,20.48-16.77,36.23,2.34-14.87,1.64-39.84-29.36-40.06-22.26,2.25-41.01,15.63-78.49,45.63-29.15,23.33-97.41,77.95-136.22,75.17,13.33,1.99,31.09,4.73,44.5,6.09,31.9,1.73,59.45,3.23,99.26-3.13"/>
          <path class="cls-1" d="m1627.93,1519.42l-13.89,13.59c15.91-18.26,14.29-22.89,11.9-22.51-7.81,1.24-49.87,47.15-47.87,52.25.85.15,1.52.28,3.1-.85-10.31,7.01-24.23,16.11-34.98,22.42l-11.12,5.85c.44-.62,1.09-1.39,1.65-1.9,19.45-17.62,31.35-32.26,35.26-37.07,16.4-20.18,30.62-42.02,47.29-61.99.83-1,1.95-2.32,2.8-3.3,8.97-10.36,14.46-14.27,17.73-16.61,14.87-9.05,14.71,1.3,13.29,8.27-3.24,15.92-17.73,33.15-23.19,39.64l-1.97,2.21"/>
          <path class="cls-1" d="m1673.51,1453.34c-5.06,8.94-11.8,20.88-17.34,29.54,10.16-17.12,12.6-22.31,17.68-43.32l12.01-19.31c-4.12,15.48-4.36,16.41-9.61,27.68l-2.73,5.41"/>
          <polyline class="cls-1" points="1017.47 371.87 1030.16 377.6 1003.7 366.03 999.76 364.32 1017.47 371.87"/>
          <path class="cls-1" d="m800.1,320.27c-11.6.34-27.08.69-38.65,1.61,4.59-.23,10.7-.68,15.29-.68l23.97-.92h-.61"/>
          <path class="cls-1" d="m624.36,364.44c10.93-5.36,17.72-8.21,33.93-14.62,5.86-2.32,18.06-7.13,22.29-10.06-1-.51-1.27-.65-7.59,1.63,11.13-3.58,26.03-8.25,37.35-11.18,17.5-3.96,19.32-.16,17.46,2.3-1.46,1.93-5.51,4.08-7.69,5.24-9.72,4.62-16.91,7.09-36.64,12.57-35.97,10.01-50.95,14.92-74.59,26.15,4.64-3.61,10.49-8.91,15.48-12.02"/>
          <g>
            <path class="cls-1" d="m499.2,495.3c5.26-9.47,12.33-22.08,18.12-31.24,28.33-39.52,72.36-86.47,162.2-98.84l-12.67,16.45c-81.22,13.34-139.84,56.21-174.24,127.41l6.59-13.78"/>
            <path class="cls-1" d="m480.4,540.26c3.36-8.88,7.68-20.78,11.45-29.49,28.23-55.19,80.09-81.6,154.14-78.49l-3.9,22.19c-103.38-4.49-144.99,44.17-161.7,85.79"/>
          </g>
          <path class="cls-1" d="m467.12,725.28c1.93-18.54,7.04-67.78,67.46-115.84,43.97-34.06,51.9-40.2,60.31-55.96,5.03-9.42,6.25-28.45-13.4-31.93-36.22-6.41-116.49,55.65-120.46,139.88l.1-9.57,1.22-22.11c11.36-85.34,79.66-145.91,178.24-158.08l-.29,24.13c-19.81,3.02-20.58,3.14-31.55,5.93,29.99,4.32,37.37,21,39.1,30.56,2.32,29.86-25.08,50.29-69.97,81.15-43.28,29.75-97.15,66.77-104.94,140.09l-5.8-28.26"/>
          <path class="cls-1" d="m563.13,878.8c-72.34,53.76-71.81-105.33-69.72-118.51,16.62-105.06,142.59-147.85,190.74-86.16,4.31,5.53,6.98,11.2,8.93,15.35,15.86,43.11-4.05,73.22-48.96,116.97-5.77-11.6-13.47-27.07-19.24-38.68,51.29-54.45,13.37-82.72-14.1-82.8-75.27-.22-127.12,108.01-89.51,152.52,9.27,10.97,18.88,4.48,29.06-2.4,5.74,11.64,13.38,27.16,19.12,38.8-1.9,1.48-4.39,3.49-6.32,4.92"/>
        </g>
      </g>
    </g>
  </g>
  <g class="cls-4">
    <g class="cls-4">
      <g class="cls-9">
        <g>
          <polyline class="cls-1" points="493.91 993.95 472.48 1000.5 476.3 1007.18 484.51 1004.66 509.21 1047.9 514.24 1046.36 489.55 1003.13 497.72 1000.63 493.91 993.95"/>
          <path class="cls-1" d="m526.94,996l-5.04,1.54,12.59,22.05c2.02,3.54,3.02,6.43,3,8.66-.02,2.23-.98,3.63-2.86,4.21s-3.91.09-6.08-1.47c-2.17-1.56-4.27-4.11-6.29-7.65l-12.59-22.05-4.99,1.53,13.29,23.27c2.05,3.59,4.23,6.53,6.55,8.8,2.32,2.27,4.6,3.82,6.86,4.65,2.25.83,4.34.95,6.25.37,1.44-.44,2.54-1.33,3.29-2.65.75-1.32,1.05-2.92.92-4.79l2.67,4.67,5.04-1.54-22.6-39.57"/>
          <path class="cls-1" d="m574.83,1020.24c-1.27.39-2.78.21-4.52-.51-1.75-.73-3.56-2.02-5.43-3.87-1.87-1.84-3.58-4.13-5.14-6.87s-2.56-5.19-3-7.39c-.44-2.2-.4-3.98.13-5.36.53-1.37,1.44-2.25,2.74-2.65s2.8-.24,4.52.47c1.72.71,3.5,1.97,5.34,3.77,1.84,1.8,3.54,4.06,5.1,6.79s2.57,5.22,3.04,7.46c.47,2.25.45,4.07-.07,5.46-.52,1.4-1.42,2.29-2.72,2.69m-20.34-33.43c-2.12.65-3.57,2.09-4.35,4.33-.78,2.24-.8,5.04-.07,8.42.73,3.38,2.24,7.05,4.5,11.02s4.81,7.37,7.61,10.2c2.81,2.83,5.58,4.85,8.32,6.07,2.73,1.21,5.15,1.5,7.24.87,1.89-.58,3.21-1.72,3.97-3.41.76-1.69,1.04-3.61.82-5.73l3.36,5.89,5.08-1.55-22.6-39.57-5.08,1.55,3.28,5.74c-1.89-1.56-3.9-2.73-6.03-3.51-2.13-.78-4.15-.88-6.06-.3"/>
          <path class="cls-1" d="m586.97,976.89c-1.68.51-2.81,1.52-3.39,3.02-.58,1.5-.67,3.36-.25,5.6l-3.28-5.74-5.04,1.54,22.6,39.57,5.04-1.54-11.89-20.83c-2.3-4.02-3.4-7-3.32-8.94.09-1.94,1.12-3.21,3.09-3.81l1.28-.39-4.84-8.47"/>
          <path class="cls-1" d="m604.82,991.25c-1.51-3.14-2.17-5.79-1.95-7.97.21-2.17,1.19-3.52,2.92-4.05,1.92-.59,4.04-.17,6.37,1.25,2.34,1.43,4.38,3.64,6.13,6.65l-13.47,4.12m-2.75-18.98c-2.39.73-4.02,2.22-4.9,4.45-.88,2.24-.95,5.06-.2,8.46.75,3.4,2.28,7.14,4.61,11.2s4.89,7.49,7.7,10.26c2.81,2.77,5.62,4.72,8.43,5.85,2.81,1.14,5.38,1.35,7.71.64,2.86-.87,4.59-2.77,5.19-5.68.6-2.91.24-6.3-1.11-10.16l-5.44,1.66c.99,4.03.12,6.46-2.58,7.29-1.88.58-4.02.1-6.41-1.41-2.39-1.52-4.56-3.83-6.51-6.95l18.6-5.69c-.57-1.23-1.27-2.59-2.12-4.07-2.19-3.83-4.62-7.07-7.31-9.7-2.68-2.64-5.39-4.49-8.11-5.58-2.72-1.07-5.24-1.27-7.53-.56"/>
          <path class="cls-1" d="m649.01,997.57c-1.27.39-2.78.21-4.52-.51-1.75-.73-3.56-2.02-5.43-3.87-1.87-1.84-3.58-4.13-5.14-6.86s-2.56-5.19-3-7.39c-.44-2.19-.4-3.98.13-5.35.53-1.37,1.44-2.25,2.74-2.65s2.8-.24,4.53.47c1.72.71,3.5,1.97,5.34,3.77,1.84,1.8,3.54,4.06,5.1,6.79s2.57,5.22,3.04,7.46c.47,2.25.45,4.07-.07,5.46-.52,1.4-1.42,2.3-2.72,2.69m-20.34-33.43c-2.12.65-3.57,2.09-4.35,4.33-.78,2.24-.8,5.04-.07,8.42.73,3.38,2.24,7.05,4.5,11.02s4.81,7.37,7.61,10.2c2.81,2.83,5.58,4.85,8.32,6.06,2.73,1.21,5.15,1.51,7.24.87,1.88-.58,3.21-1.72,3.97-3.41.76-1.69,1.04-3.61.83-5.73l3.36,5.89,5.08-1.55-22.6-39.57-5.08,1.55,3.28,5.74c-1.89-1.56-3.9-2.73-6.03-3.51-2.13-.78-4.14-.88-6.06-.3"/>
          <path class="cls-1" d="m558.97,1126.32c-1.26.39-2.77.22-4.52-.51s-3.56-2.02-5.43-3.87c-1.87-1.84-3.58-4.13-5.14-6.86s-2.56-5.19-3-7.39c-.44-2.2-.4-3.98.14-5.36.53-1.37,1.44-2.26,2.74-2.65s2.8-.24,4.53.47c1.72.71,3.5,1.97,5.34,3.77,1.84,1.8,3.54,4.07,5.1,6.79s2.58,5.22,3.04,7.46c.47,2.25.45,4.07-.07,5.46-.52,1.4-1.42,2.29-2.72,2.69m-14.2-50.49l-5.08,1.55,10.91,19.1c-1.98-1.59-4.06-2.71-6.25-3.36-2.19-.65-4.08-.74-5.67-.25-2.15.66-3.61,2.11-4.4,4.34-.78,2.24-.8,5.04-.07,8.42.73,3.38,2.23,7.05,4.5,11.03s4.81,7.37,7.62,10.2c2.81,2.82,5.58,4.84,8.34,6.05s5.19,1.49,7.31.85c1.88-.58,3.2-1.71,3.95-3.4.75-1.69.98-3.62.72-5.79l3.41,5.96,5.08-1.55-30.35-53.14"/>
          <path class="cls-1" d="m572,1102.51c-1.51-3.13-2.17-5.79-1.95-7.96.21-2.18,1.18-3.53,2.92-4.06,1.91-.59,4.04-.17,6.37,1.26,2.34,1.42,4.38,3.63,6.13,6.64l-13.47,4.12m-2.75-18.98c-2.39.73-4.02,2.22-4.9,4.45-.88,2.24-.95,5.05-.21,8.45.75,3.4,2.29,7.14,4.61,11.2s4.89,7.49,7.7,10.26c2.81,2.77,5.62,4.72,8.43,5.86,2.81,1.14,5.38,1.35,7.71.64,2.86-.87,4.59-2.76,5.19-5.68.6-2.91.23-6.3-1.11-10.17l-5.43,1.66c.99,4.03.12,6.46-2.59,7.29-1.88.58-4.02.1-6.41-1.41-2.39-1.52-4.56-3.83-6.51-6.95l18.6-5.69c-.57-1.23-1.27-2.59-2.12-4.08-2.19-3.83-4.62-7.07-7.31-9.7-2.68-2.64-5.39-4.5-8.11-5.58-2.73-1.08-5.24-1.27-7.54-.57"/>
          <path class="cls-1" d="m598.15,1063.89l-5.08,1.55,5.62,9.84-2.87.88,3.82,6.68,2.87-.88,12.51,21.9c2.21,3.88,4.42,6.49,6.61,7.85,2.19,1.36,4.42,1.69,6.69.99l3.98-1.22-3.9-6.82-3.09.95c-1.03.32-1.94.21-2.74-.3-.8-.52-1.62-1.52-2.47-3l-12.51-21.9,5.92-1.81-3.82-6.68-5.92,1.81-5.62-9.84"/>
          <path class="cls-1" d="m626.29,1066.09c-1.68.51-2.81,1.52-3.39,3.02-.58,1.5-.66,3.37-.25,5.6l-3.28-5.75-5.04,1.54,22.6,39.57,5.04-1.54-11.9-20.83c-2.3-4.02-3.4-7-3.31-8.94.09-1.94,1.12-3.21,3.09-3.82l1.28-.39-4.84-8.47"/>
          <path class="cls-1" d="m661.07,1095.1c-1.27.39-2.77.22-4.52-.51s-3.56-2.02-5.43-3.87c-1.87-1.84-3.58-4.13-5.14-6.86s-2.56-5.19-3-7.39c-.44-2.2-.4-3.98.13-5.35.53-1.37,1.44-2.26,2.74-2.66s2.8-.24,4.53.47c1.72.71,3.5,1.97,5.34,3.77,1.84,1.8,3.54,4.07,5.1,6.79s2.57,5.22,3.04,7.46c.47,2.25.45,4.07-.07,5.46-.52,1.4-1.43,2.29-2.72,2.69m-20.34-33.43c-2.12.65-3.57,2.09-4.35,4.32-.78,2.24-.81,5.04-.07,8.42.74,3.38,2.24,7.05,4.51,11.03s4.81,7.37,7.61,10.2c2.81,2.82,5.58,4.84,8.32,6.06,2.74,1.22,5.15,1.51,7.24.87,1.88-.58,3.21-1.71,3.97-3.41.76-1.69,1.04-3.61.82-5.74l3.36,5.89,5.08-1.55-22.6-39.57-5.08,1.55,3.28,5.75c-1.9-1.56-3.9-2.73-6.03-3.51-2.13-.79-4.15-.89-6.06-.3"/>
          <path class="cls-1" d="m692.57,1085.47c-1.26.39-2.77.23-4.5-.48-1.74-.71-3.53-1.97-5.39-3.8-1.85-1.82-3.56-4.1-5.12-6.83s-2.57-5.2-3.02-7.43c-.46-2.22-.42-4.03.12-5.44.53-1.4,1.43-2.29,2.7-2.68s2.81-.25,4.53.43c1.72.68,3.5,1.91,5.32,3.69,1.83,1.78,3.52,4.03,5.08,6.76s2.58,5.23,3.06,7.5c.49,2.27.47,4.12-.05,5.54s-1.43,2.33-2.72,2.73m-34.04-44.43l-5.04,1.54,30.35,53.14,5.04-1.54-3.28-5.74c1.92,1.61,3.95,2.78,6.09,3.54,2.14.75,4.15.84,6.04.26,2.12-.65,3.56-2.11,4.31-4.4.75-2.28.74-5.15-.05-8.59-.79-3.44-2.32-7.15-4.59-11.12s-4.79-7.35-7.55-10.14c-2.76-2.78-5.49-4.74-8.19-5.89-2.7-1.14-5.12-1.39-7.27-.73-1.83.56-3.14,1.68-3.92,3.35-.79,1.67-1.07,3.6-.83,5.78l-11.12-19.46"/>
          <path class="cls-1" d="m720.98,1076.79c-1.26.39-2.77.22-4.52-.52-1.75-.73-3.56-2.02-5.43-3.87-1.87-1.84-3.58-4.13-5.14-6.86s-2.56-5.19-3-7.39c-.44-2.2-.4-3.98.14-5.36.53-1.37,1.44-2.26,2.74-2.65s2.81-.24,4.53.47c1.72.71,3.5,1.97,5.34,3.77,1.84,1.8,3.54,4.07,5.1,6.79s2.58,5.22,3.04,7.46c.47,2.25.45,4.07-.07,5.46-.52,1.4-1.42,2.29-2.72,2.69m-20.34-33.43c-2.12.65-3.57,2.09-4.35,4.33-.78,2.24-.8,5.04-.07,8.42.73,3.38,2.24,7.05,4.51,11.03s4.81,7.37,7.61,10.2c2.81,2.82,5.58,4.84,8.31,6.06s5.15,1.5,7.24.87c1.89-.58,3.21-1.71,3.97-3.41.76-1.69,1.03-3.61.82-5.74l3.36,5.89,5.08-1.55-22.6-39.57-5.08,1.55,3.28,5.75c-1.9-1.56-3.9-2.73-6.03-3.51-2.13-.79-4.15-.89-6.06-.3"/>
          <path class="cls-1" d="m726.19,1036.3l-5.04,1.54,27.03,47.33c.85,1.48,1.24,2.61,1.19,3.39-.06.78-.6,1.32-1.63,1.64l-1.72.53,3.94,6.9,2.61-.8c2.27-.69,3.5-2.1,3.69-4.21.19-2.11-.82-5.11-3.03-8.99l-27.03-47.33m-11.46-14.97c-.91.28-1.39,1.01-1.44,2.21-.04,1.2.36,2.54,1.21,4.02s1.87,2.63,3.06,3.45,2.25,1.09,3.16.81,1.35-1,1.39-2.2c.04-1.19-.36-2.53-1.2-4.02s-1.87-2.64-3.06-3.45-2.23-1.09-3.11-.82"/>
          <path class="cls-1" d="m762.29,1064.16c-2.03.62-4.38-.02-7.05-1.94-2.67-1.91-5.22-5-7.65-9.26-1.64-2.87-2.7-5.4-3.19-7.58-.49-2.19-.47-3.95.07-5.29.53-1.34,1.44-2.22,2.74-2.61s2.79-.26,4.49.4c1.69.66,3.44,1.88,5.26,3.66,1.81,1.78,3.54,4.1,5.18,6.98s2.68,5.42,3.12,7.65c.44,2.22.38,4.02-.18,5.37-.56,1.35-1.49,2.22-2.79,2.62m-19.06-33.82c-2.33.71-3.95,2.2-4.88,4.45-.93,2.25-1.05,5.1-.36,8.54.69,3.45,2.18,7.18,4.48,11.2s4.9,7.49,7.72,10.25c2.82,2.76,5.65,4.71,8.48,5.85,2.83,1.13,5.39,1.35,7.68.64s3.97-2.21,4.93-4.5c.96-2.29,1.11-5.16.45-8.62-.66-3.45-2.13-7.19-4.43-11.21s-4.88-7.42-7.75-10.2c-2.87-2.78-5.72-4.71-8.56-5.81-2.84-1.1-5.43-1.3-7.76-.58"/>
          <path class="cls-1" d="m583.45,1181.17l-5.04,1.54,22.6,39.57,5.04-1.54-22.6-39.57m-11.46-14.97c-.91.28-1.39,1.02-1.43,2.21s.36,2.53,1.2,4.02,1.87,2.64,3.06,3.45c1.19.81,2.24,1.08,3.16.8s1.35-1,1.39-2.2c.04-1.19-.36-2.53-1.21-4.02s-1.87-2.63-3.06-3.45c-1.19-.82-2.23-1.09-3.12-.82"/>
          <path class="cls-1" d="m619.85,1208.93c-1.26.39-2.77.22-4.52-.52-1.75-.73-3.56-2.02-5.43-3.86-1.87-1.85-3.58-4.13-5.14-6.87s-2.56-5.19-3-7.39c-.44-2.2-.4-3.98.13-5.36.53-1.37,1.44-2.25,2.74-2.65s2.81-.24,4.53.47c1.72.71,3.5,1.97,5.34,3.77,1.84,1.8,3.54,4.06,5.1,6.79s2.57,5.22,3.04,7.46c.47,2.25.45,4.07-.07,5.46-.52,1.4-1.42,2.29-2.72,2.69m-14.2-50.49l-5.08,1.55,10.91,19.1c-1.98-1.59-4.06-2.71-6.25-3.36-2.19-.65-4.08-.73-5.67-.25-2.15.66-3.62,2.1-4.4,4.34-.78,2.24-.81,5.04-.07,8.42.73,3.37,2.23,7.05,4.5,11.02s4.81,7.37,7.61,10.2c2.81,2.82,5.59,4.84,8.34,6.05,2.75,1.21,5.19,1.49,7.31.85,1.88-.58,3.2-1.71,3.95-3.4.75-1.69.98-3.62.72-5.78l3.4,5.96,5.08-1.55-30.35-53.14"/>
          <path class="cls-1" d="m632.87,1185.12c-1.51-3.13-2.17-5.79-1.95-7.96s1.19-3.53,2.92-4.06c1.91-.59,4.04-.16,6.38,1.26,2.33,1.42,4.38,3.64,6.13,6.64l-13.48,4.12m-2.74-18.98c-2.39.73-4.02,2.21-4.9,4.45-.88,2.24-.95,5.06-.21,8.46.75,3.4,2.28,7.13,4.61,11.2s4.89,7.49,7.7,10.25c2.81,2.77,5.62,4.73,8.43,5.86,2.81,1.14,5.38,1.35,7.71.64,2.86-.87,4.59-2.76,5.19-5.68.6-2.91.23-6.3-1.11-10.16l-5.43,1.66c.98,4.03.12,6.46-2.58,7.29-1.89.58-4.02.11-6.41-1.42-2.39-1.51-4.56-3.83-6.51-6.95l18.6-5.69c-.57-1.23-1.27-2.59-2.12-4.08-2.19-3.83-4.62-7.06-7.3-9.7-2.68-2.64-5.39-4.5-8.11-5.58s-5.24-1.26-7.53-.56"/>
          <path class="cls-1" d="m677.06,1191.44c-1.26.39-2.77.22-4.52-.51-1.75-.73-3.55-2.02-5.42-3.86-1.87-1.85-3.58-4.13-5.14-6.87s-2.56-5.19-3-7.39c-.44-2.2-.4-3.98.13-5.36.53-1.37,1.44-2.25,2.74-2.65s2.81-.24,4.53.47c1.72.71,3.5,1.97,5.34,3.77,1.84,1.8,3.54,4.06,5.1,6.79s2.57,5.22,3.04,7.46c.47,2.25.45,4.07-.07,5.46-.52,1.4-1.42,2.29-2.72,2.69m-20.33-33.43c-2.12.65-3.57,2.09-4.35,4.33-.78,2.24-.81,5.04-.07,8.42.73,3.37,2.23,7.05,4.5,11.02s4.81,7.37,7.61,10.2,5.58,4.85,8.31,6.06c2.74,1.22,5.15,1.5,7.24.87,1.88-.58,3.21-1.71,3.97-3.41.76-1.69,1.04-3.6.82-5.74l3.36,5.89,5.08-1.55-22.6-39.57-5.08,1.55,3.28,5.74c-1.89-1.56-3.9-2.73-6.03-3.51-2.13-.78-4.15-.88-6.06-.3"/>
          <polyline class="cls-1" points="674.53 1137.38 669.49 1138.92 699.84 1192.06 704.88 1190.52 674.53 1137.38"/>
          <path class="cls-1" d="m707.83,1177.89c-.91.28-1.39,1.02-1.44,2.21-.04,1.2.36,2.54,1.21,4.02s1.87,2.63,3.06,3.45,2.25,1.09,3.16.81,1.35-1,1.39-2.2c.04-1.19-.36-2.53-1.2-4.02s-1.87-2.64-3.06-3.45c-1.19-.81-2.23-1.09-3.11-.82"/>
        </g>
      </g>
    </g>
    <g class="cls-4">
      <g class="cls-3">
        <g>
          <polyline class="cls-1" points="671.24 1264.38 665.42 1266.16 637.81 1295.59 651.6 1270.38 645.5 1272.25 617.26 1301.98 631.2 1276.62 625.44 1278.38 609.24 1309.28 615.38 1307.37 642.1 1279.59 629.72 1302.98 635.87 1301.1 671.24 1264.38"/>
          <polyline class="cls-1" points="694.05 1257.37 675.75 1262.96 650.16 1296.73 668.46 1291.14 671.88 1286.62 659.02 1290.56 666.85 1280.22 678.28 1276.73 681.7 1272.21 670.27 1275.71 677.77 1265.81 690.63 1261.88 694.05 1257.37"/>
          <path class="cls-1" d="m683.99,1282.92l7.98-10.53,7.15-2.19c1.84-.56,2.95-.53,3.33.1s-.06,1.77-1.31,3.42-2.71,3.04-4.44,4.27c-1.73,1.23-3.52,2.12-5.37,2.68l-7.34,2.24m11.4-15.04l7.32-9.65,6.72-2.05c1.78-.54,2.84-.54,3.2.01.35.55-.05,1.59-1.2,3.11s-2.58,2.89-4.2,4.03c-1.63,1.13-3.33,1.97-5.11,2.51l-6.72,2.05m17.93-16.37l-12.63,3.86-25.55,33.72,13.25-4.05c2.19-.67,4.41-1.65,6.67-2.95,2.25-1.3,4.34-2.77,6.25-4.41,1.91-1.64,3.52-3.32,4.82-5.03,1.52-2,2.26-3.61,2.22-4.82-.04-1.2-.83-1.7-2.36-1.48,2.18-1.14,4.27-2.51,6.27-4.12,2-1.6,3.73-3.38,5.2-5.32,1.23-1.62,1.92-2.95,2.09-4.01.17-1.06-.27-1.73-1.3-2.01-1.03-.28-2.68-.08-4.93.61"/>
          <path class="cls-1" d="m567.29,1363.34l18.71-24.7,5.39-1.65c3.88-1.18,6.01-.99,6.41.57.4,1.57-.89,4.31-3.85,8.22s-6.25,7.21-9.94,9.97c-3.68,2.77-7.46,4.74-11.34,5.93l-5.39,1.65m27.52-30.85l-10.82,3.31-25.55,33.72,10.82-3.31c3.53-1.08,7.12-2.69,10.79-4.85,3.67-2.15,7.18-4.71,10.54-7.68,3.36-2.97,6.34-6.16,8.93-9.59s4.15-6.21,4.65-8.34c.5-2.13-.05-3.48-1.66-4.04-1.61-.56-4.18-.31-7.71.77"/>
          <path class="cls-1" d="m608.04,1342.23c1.82-2.15,3.86-4.03,6.11-5.65,2.26-1.62,4.32-2.72,6.19-3.29,2.06-.63,3.33-.55,3.8.26.47.8-.06,2.22-1.57,4.24l-14.53,4.44m16.07-13.67c-2.57.79-5.28,2.05-8.13,3.79-2.84,1.74-5.6,3.82-8.28,6.24s-5.06,5.01-7.14,7.76-3.35,5-3.8,6.74-.12,2.88.99,3.42c1.11.54,2.93.43,5.44-.34,3.08-.94,6.26-2.52,9.53-4.72,3.27-2.21,6.23-4.66,8.89-7.36l-5.86,1.79c-3.1,2.86-6.1,4.74-9.03,5.63-2.03.62-3.26.5-3.68-.37-.42-.86.1-2.34,1.56-4.43l20.06-6.13c.74-.85,1.49-1.77,2.25-2.78,1.96-2.59,3.15-4.71,3.58-6.37.43-1.66.09-2.74-1.02-3.25-1.11-.51-2.9-.38-5.37.38"/>
          <path class="cls-1" d="m651.32,1320.24c-2,.61-4.03,1.49-6.08,2.64-2.06,1.15-3.94,2.44-5.66,3.87-1.72,1.43-3.12,2.86-4.2,4.29-1.32,1.75-1.94,3.02-1.84,3.81.1.79.57,1.26,1.42,1.39.85.14,2.04.18,3.6.13,1.59-.04,2.67.04,3.24.24.57.2.47.8-.28,1.8-.71.94-1.72,1.84-3.01,2.69-1.3.86-2.71,1.52-4.23,1.98s-2.39.44-2.78-.03c-.39-.46-.21-1.25.55-2.35l-5.62,1.72c-1.16,1.6-1.76,2.91-1.8,3.93-.04,1.02.47,1.66,1.53,1.92,1.06.26,2.62.08,4.69-.56s4.06-1.5,6.09-2.64c2.02-1.14,3.9-2.44,5.64-3.89,1.73-1.45,3.18-2.93,4.33-4.45,1.27-1.7,1.85-2.94,1.74-3.7-.11-.76-.57-1.22-1.39-1.38-.82-.16-1.98-.21-3.5-.14-1.11.02-1.93,0-2.45-.05-.52-.05-.85-.24-1-.57-.14-.33.06-.85.6-1.56.69-.91,1.62-1.75,2.8-2.53,1.18-.78,2.48-1.39,3.91-1.83s2.35-.45,2.67,0c.32.45.07,1.26-.74,2.43l5.43-1.66c1.88-2.61,2.49-4.41,1.83-5.39-.66-.98-2.49-1.01-5.47-.1"/>
          <path class="cls-1" d="m672.77,1314.02l-5.43,1.66-20.26,26.73,5.43-1.66,20.26-26.73m5.38-9.81c-.99.3-2.07.89-3.25,1.78-1.18.88-2.15,1.83-2.91,2.83s-1.06,1.74-.91,2.22c.15.48.72.56,1.71.26s2.02-.88,3.2-1.76c1.18-.88,2.15-1.83,2.91-2.83s1.06-1.74.91-2.22c-.15-.48-.7-.57-1.66-.28"/>
          <path class="cls-1" d="m674.69,1330.61c-1.37.42-2.38.45-3.06.1-.67-.35-.86-1.11-.55-2.27.31-1.16,1.16-2.67,2.56-4.51s2.98-3.55,4.74-5.12c1.76-1.57,3.51-2.89,5.25-3.95,1.73-1.06,3.3-1.81,4.7-2.24s2.43-.47,3.1-.13c.67.34.86,1.08.58,2.21-.28,1.13-1.12,2.62-2.52,4.46s-2.99,3.57-4.78,5.17c-1.79,1.6-3.56,2.95-5.3,4.03-1.75,1.08-3.32,1.83-4.72,2.26m16.13-22.45c-2.29.7-4.81,1.91-7.57,3.64-2.76,1.73-5.47,3.79-8.14,6.2-2.66,2.41-5.01,4.95-7.05,7.64s-3.31,4.92-3.82,6.7c-.51,1.78-.27,2.98.73,3.58,1,.6,2.64.56,4.92-.14,2-.61,4.11-1.59,6.34-2.93,2.22-1.34,4.27-2.78,6.15-4.32l-3.38,4.46c-1.96,2.59-4.13,4.77-6.51,6.54-2.38,1.77-4.66,2.99-6.86,3.66-1.88.57-3.16.64-3.86.19-.7-.44-.73-1.3-.09-2.56l-5.38,1.65c-1.89,2.81-2.3,4.71-1.24,5.69,1.06.98,3.38.93,6.93-.16,2.67-.82,5.38-2.07,8.13-3.75,2.76-1.69,5.37-3.65,7.85-5.89,2.47-2.24,4.64-4.58,6.5-7.04l20.59-27.17-5.48,1.68-2.94,3.88c.04-.96-.41-1.61-1.36-1.95-.95-.34-2.44-.2-4.47.42"/>
          <path class="cls-1" d="m725.81,1297.46c-1.56.48-3.26,1.23-5.11,2.27-1.85,1.04-3.64,2.24-5.36,3.61l2.32-3.06-5.43,1.66-20.26,26.73,5.43-1.66,11.32-14.94c1.81-2.39,3.8-4.41,5.96-6.05,2.16-1.64,4.25-2.77,6.29-3.39s3.15-.47,3.36.44c.21.92-.6,2.58-2.41,4.97l-11.32,14.94,5.38-1.65,11.95-15.77c1.84-2.43,2.95-4.35,3.32-5.79.38-1.43.08-2.33-.9-2.71-.98-.37-2.49-.24-4.56.39"/>
          <polyline class="cls-1" points="567.12 1385.65 561.69 1387.31 542.65 1412.44 545.34 1392.3 539.91 1393.96 514.32 1427.73 519.76 1426.07 538.84 1400.89 536.1 1421.07 541.54 1419.41 567.12 1385.65"/>
          <path class="cls-1" d="m563.38,1409.38c-2.19.67-3.42.44-3.67-.68s.71-3.13,2.89-6.01c1.47-1.94,3.06-3.69,4.78-5.25,1.72-1.56,3.43-2.85,5.13-3.9,1.71-1.04,3.26-1.78,4.66-2.21s2.44-.49,3.14-.18c.69.31.9,1.02.61,2.14-.29,1.12-1.17,2.65-2.64,4.59s-3.1,3.71-4.89,5.3c-1.79,1.59-3.56,2.92-5.3,3.97-1.74,1.05-3.3,1.79-4.7,2.22m17.52-22.88c-2.51.77-5.21,2.03-8.1,3.78-2.89,1.76-5.72,3.86-8.49,6.32-2.77,2.46-5.18,5.05-7.24,7.77s-3.34,4.99-3.78,6.73c-.44,1.74-.09,2.87,1.04,3.41,1.13.54,2.94.43,5.41-.33s5.24-2.04,8.19-3.83c2.95-1.78,5.83-3.91,8.63-6.38,2.8-2.47,5.23-5.07,7.29-7.78s3.3-4.95,3.72-6.69c.42-1.74.04-2.87-1.14-3.38-1.18-.51-3.02-.38-5.53.39"/>
          <path class="cls-1" d="m594.12,1399.98c-1.37.42-2.38.45-3.06.1-.67-.35-.86-1.11-.55-2.27.31-1.16,1.16-2.67,2.56-4.51s2.98-3.55,4.74-5.12c1.76-1.57,3.51-2.89,5.25-3.95,1.73-1.06,3.3-1.81,4.7-2.24s2.43-.47,3.1-.13c.67.34.86,1.08.58,2.21-.28,1.13-1.12,2.62-2.52,4.46s-2.99,3.57-4.78,5.17c-1.79,1.6-3.56,2.95-5.3,4.03-1.75,1.08-3.32,1.83-4.72,2.26m37.33-35.65l-5.48,1.68-9.78,12.91c-.03-.96-.59-1.56-1.68-1.82-1.09-.25-2.5-.11-4.21.41-2.32.71-4.86,1.93-7.62,3.65-2.76,1.73-5.47,3.79-8.14,6.2-2.66,2.41-5.01,4.95-7.05,7.64s-3.31,4.92-3.82,6.7c-.51,1.78-.27,2.98.73,3.58,1,.6,2.64.55,4.93-.14,2.03-.62,4.16-1.59,6.36-2.92,2.21-1.32,4.25-2.77,6.12-4.33l-3.05,4.03,5.48-1.68,27.2-35.9"/>
          <path class="cls-1" d="m627.21,1381.11c1.82-2.15,3.86-4.03,6.11-5.65,2.25-1.62,4.32-2.72,6.19-3.29,2.06-.63,3.33-.55,3.8.26.47.8-.06,2.22-1.57,4.24l-14.54,4.44m16.07-13.67c-2.57.79-5.28,2.05-8.12,3.79-2.84,1.74-5.6,3.82-8.28,6.24-2.68,2.42-5.06,5.01-7.14,7.76s-3.35,5-3.8,6.74c-.45,1.74-.12,2.88.99,3.42,1.11.54,2.93.43,5.44-.34,3.08-.94,6.26-2.52,9.53-4.72,3.27-2.21,6.23-4.66,8.89-7.36l-5.86,1.79c-3.1,2.86-6.1,4.74-9.03,5.63-2.03.62-3.26.5-3.68-.37-.42-.87.1-2.34,1.56-4.43l20.06-6.13c.74-.85,1.49-1.77,2.25-2.78,1.96-2.59,3.15-4.71,3.58-6.37.43-1.66.09-2.74-1.02-3.25-1.11-.51-2.9-.38-5.38.38"/>
          <path class="cls-1" d="m670.49,1359.11c-2,.61-4.03,1.49-6.08,2.64-2.06,1.15-3.94,2.44-5.66,3.87-1.72,1.43-3.12,2.86-4.2,4.29-1.32,1.75-1.94,3.02-1.84,3.81.1.79.57,1.26,1.42,1.39.85.14,2.04.18,3.6.13,1.59-.04,2.67.04,3.24.24.57.2.47.8-.29,1.8-.71.94-1.72,1.84-3.01,2.69-1.3.86-2.71,1.52-4.23,1.98s-2.39.44-2.78-.03c-.4-.46-.21-1.25.55-2.35l-5.62,1.72c-1.16,1.6-1.76,2.91-1.8,3.93-.04,1.02.47,1.66,1.53,1.92,1.06.26,2.62.08,4.69-.56s4.06-1.5,6.09-2.64c2.02-1.14,3.9-2.44,5.64-3.89,1.73-1.45,3.17-2.93,4.33-4.45,1.27-1.7,1.85-2.94,1.74-3.7-.11-.76-.57-1.22-1.39-1.38-.82-.16-1.99-.21-3.5-.14-1.11.02-1.93,0-2.45-.05-.52-.05-.85-.24-.99-.57-.14-.33.06-.85.6-1.56.69-.91,1.62-1.75,2.8-2.53,1.18-.78,2.48-1.39,3.91-1.83s2.35-.44,2.67,0c.32.45.07,1.26-.74,2.43l5.43-1.66c1.88-2.61,2.49-4.41,1.83-5.39-.66-.98-2.49-1.01-5.47-.1"/>
        </g>
      </g>
    </g>
    <g class="cls-4">
      <g class="cls-2">
        <g>
          <path class="cls-1" d="m405.94,1061.23l18.9-24.94,3.05,5.33c2.19,3.84,3.03,7.89,2.52,12.16-.51,4.26-2.27,8.37-5.26,12.33s-5.85,5.93-8.66,6.05c-2.8.11-5.3-1.75-7.49-5.59l-3.05-5.33m25.39-24.16l-6.12-10.71-25.8,34.05,6.12,10.71c2,3.49,4.26,5.87,6.79,7.15,2.53,1.27,5.16,1.35,7.91.23,2.75-1.11,5.43-3.41,8.05-6.87s4.51-7.21,5.66-11.24c1.15-4.03,1.5-8.05,1.05-12.06-.45-4.02-1.67-7.77-3.66-11.27"/>
          <path class="cls-1" d="m428.5,1101.08c-.77-1.35-1.23-3-1.36-4.95-.13-1.94.12-3.99.76-6.14.64-2.14,1.67-4.15,3.08-6.01s2.84-3.1,4.29-3.71c1.45-.62,2.78-.68,4-.18,1.21.49,2.22,1.43,3.01,2.82s1.25,3.04,1.39,4.95c.14,1.92-.1,3.93-.72,6.04-.62,2.11-1.63,4.1-3.04,5.96s-2.86,3.12-4.33,3.77c-1.47.65-2.82.74-4.05.26-1.23-.48-2.24-1.4-3.03-2.79m16.8-24.16c-1.29-2.27-2.92-3.75-4.86-4.47-1.95-.71-4.02-.57-6.23.44-2.2,1.01-4.33,2.86-6.39,5.57s-3.58,5.68-4.58,8.9c-1,3.23-1.42,6.36-1.26,9.41.16,3.05.87,5.69,2.15,7.92,1.15,2.01,2.5,3.39,4.04,4.11,1.54.73,3.06.91,4.54.55l-3.04,4.02,3.1,5.43,20.46-27-3.1-5.43-2.97,3.92c.42-2.15.51-4.41.27-6.77-.24-2.36-.94-4.56-2.11-6.6"/>
          <path class="cls-1" d="m465.93,1098.45l-3.1-5.43-5.08,6.71-1.75-3.07-3.45,4.56,1.75,3.07-11.32,14.94c-2,2.65-3.09,5.2-3.24,7.66-.16,2.47.46,4.91,1.84,7.34l2.43,4.25,3.53-4.66-1.89-3.31c-.63-1.1-.91-2.1-.83-3,.07-.9.49-1.85,1.26-2.86l11.32-14.94,3.61,6.33,3.45-4.56-3.61-6.33,5.08-6.71"/>
          <path class="cls-1" d="m456.81,1150.64c-.77-1.35-1.23-3-1.36-4.95s.12-3.99.76-6.14c.64-2.14,1.67-4.15,3.08-6.01s2.84-3.1,4.29-3.71c1.45-.62,2.78-.68,4-.18,1.21.49,2.22,1.43,3.01,2.82s1.25,3.04,1.39,4.95c.14,1.91-.1,3.93-.72,6.04-.62,2.11-1.63,4.1-3.04,5.96s-2.86,3.12-4.33,3.77c-1.47.65-2.83.73-4.05.26s-2.24-1.41-3.03-2.79m16.8-24.16c-1.29-2.27-2.92-3.75-4.86-4.47-1.95-.71-4.02-.57-6.23.44-2.2,1.01-4.33,2.86-6.39,5.57s-3.58,5.68-4.58,8.9c-1,3.23-1.42,6.36-1.26,9.41.16,3.05.87,5.69,2.15,7.92,1.15,2.01,2.5,3.39,4.04,4.11,1.54.73,3.06.91,4.54.55l-3.04,4.02,3.1,5.43,20.46-27-3.1-5.43-2.97,3.92c.42-2.15.51-4.41.27-6.77-.24-2.36-.94-4.56-2.11-6.6"/>
          <path class="cls-1" d="m491.05,1157.02c-1.13-1.98-2.4-3.39-3.79-4.24-1.39-.84-2.77-1.07-4.14-.7-1.37.37-2.6,1.28-3.69,2.72-1.34,1.76-2.16,3.63-2.46,5.6-.3,1.98-.3,3.84,0,5.59.31,1.75.81,3.88,1.5,6.39.7,2.6,1.14,4.61,1.29,6.03.16,1.42-.14,2.63-.91,3.65-.72.95-1.54,1.3-2.48,1.07-.93-.23-1.83-1.1-2.7-2.61s-1.22-3.04-1.19-4.76c.03-1.73.45-3.21,1.27-4.45l-3.18-5.57c-1.2,1.7-2.03,3.68-2.49,5.95-.46,2.27-.52,4.6-.18,6.98s1.1,4.6,2.27,6.65,2.41,3.43,3.78,4.24c1.38.81,2.75,1.02,4.14.63,1.38-.39,2.66-1.35,3.82-2.89,1.29-1.76,2.09-3.61,2.37-5.53.29-1.92.29-3.77,0-5.51-.28-1.75-.77-3.83-1.45-6.24-.49-1.84-.83-3.26-1.04-4.26-.2-1-.26-2-.18-2.99.08-.99.4-1.85.94-2.57.69-.91,1.46-1.27,2.32-1.07.85.2,1.68,1.01,2.49,2.42s1.21,2.96,1.15,4.53c-.06,1.57-.52,3-1.38,4.31l3.07,5.38c1.96-2.81,3.01-5.88,3.15-9.25s-.63-6.52-2.32-9.48"/>
          <polyline class="cls-1" points="513.33 1197.06 510.15 1191.49 490.22 1204.47 501.63 1176.58 498.21 1170.58 483.94 1207.38 470.97 1215.22 474.15 1220.79 513.33 1197.06"/>
          <path class="cls-1" d="m523.48,1213.8c-.88-1.54-1.95-2.69-3.2-3.44-1.25-.75-2.55-1.01-3.89-.78l2.34-3.09-3.07-5.38-20.46,27,3.07,5.38,11.43-15.09c1.83-2.42,3.57-3.68,5.22-3.79,1.65-.11,3.05.84,4.2,2.85s1.57,4.25,1.25,6.7c-.31,2.45-1.38,4.89-3.21,7.31l-11.43,15.09,3.05,5.33,12.07-15.92c1.86-2.45,3.18-4.99,3.97-7.64.79-2.64,1.06-5.22.8-7.72-.26-2.5-.97-4.78-2.14-6.82"/>
          <path class="cls-1" d="m539.73,1242.26c-1.42-2.49-3.11-4.11-5.07-4.89-1.96-.78-4.05-.66-6.27.36-2.22,1.02-4.38,2.92-6.48,5.69s-3.65,5.76-4.62,8.95c-.98,3.2-1.36,6.33-1.14,9.41.22,3.08,1.04,5.86,2.46,8.34,1.76,3.08,3.85,4.86,6.26,5.32,2.41.46,4.87-.31,7.38-2.29l-3.32-5.81c-2.73,1.83-4.98,1.19-6.76-1.92-1.26-2.2-1.64-4.77-1.15-7.71.49-2.94,1.84-5.86,4.04-8.77s4.29-4.51,6.26-4.82c1.97-.31,3.58.63,4.84,2.84.9,1.57,1.36,3.26,1.39,5.05.02,1.79-.34,3.59-1.08,5.4l3.32,5.81c1.76-3.6,2.64-7.2,2.64-10.81,0-3.61-.9-7-2.7-10.14"/>
          <path class="cls-1" d="m367.4,1109.5l15.75-20.78,2.54,4.45c1.83,3.2,2.53,6.58,2.1,10.13-.43,3.55-1.89,6.98-4.39,10.27s-4.88,4.94-7.21,5.04-4.42-1.46-6.24-4.66l-2.54-4.45m21.16-20.13l-5.1-8.93-21.5,28.38,5.1,8.93c1.66,2.91,3.55,4.9,5.65,5.96,2.11,1.06,4.31,1.12,6.6.2,2.29-.93,4.53-2.84,6.71-5.72s3.76-6.01,4.72-9.37c.96-3.36,1.25-6.71.87-10.05-.37-3.35-1.39-6.48-3.05-9.39"/>
          <path class="cls-1" d="m386.2,1142.7c-.65-1.13-1.02-2.5-1.14-4.12-.11-1.63.1-3.33.63-5.11.53-1.79,1.39-3.46,2.56-5.01s2.37-2.58,3.58-3.1c1.21-.51,2.32-.57,3.33-.15s1.85,1.19,2.51,2.35,1.05,2.53,1.16,4.13c.11,1.59-.08,3.27-.6,5.03-.52,1.76-1.36,3.41-2.54,4.97s-2.38,2.6-3.61,3.14c-1.23.54-2.35.61-3.38.22-1.02-.4-1.86-1.18-2.52-2.33m14-20.13c-1.08-1.89-2.43-3.13-4.05-3.72-1.62-.59-3.35-.47-5.19.36-1.84.84-3.61,2.39-5.32,4.65s-2.98,4.73-3.82,7.42c-.83,2.69-1.18,5.3-1.05,7.84s.73,4.74,1.79,6.61c.96,1.68,2.08,2.82,3.36,3.42s2.55.75,3.79.45l-2.54,3.35,2.58,4.52,17.05-22.5-2.58-4.52-2.48,3.27c.35-1.8.42-3.67.22-5.64-.2-1.97-.79-3.8-1.76-5.51"/>
          <path class="cls-1" d="m417.39,1140.51l-2.58-4.52-4.24,5.59-1.46-2.56-2.88,3.8,1.46,2.56-9.43,12.45c-1.67,2.2-2.57,4.33-2.7,6.39-.13,2.06.38,4.09,1.54,6.11l2.02,3.54,2.94-3.88-1.57-2.75c-.53-.92-.76-1.75-.69-2.5s.41-1.54,1.05-2.39l9.43-12.45,3.01,5.27,2.88-3.8-3.01-5.27,4.24-5.59"/>
          <path class="cls-1" d="m409.79,1184c-.64-1.13-1.02-2.5-1.14-4.12-.11-1.63.1-3.33.63-5.11.53-1.79,1.39-3.46,2.56-5.01s2.37-2.58,3.58-3.1c1.21-.51,2.32-.57,3.33-.15s1.85,1.19,2.51,2.35,1.05,2.53,1.16,4.13c.11,1.59-.08,3.27-.6,5.03-.52,1.76-1.36,3.41-2.54,4.97s-2.38,2.6-3.61,3.14c-1.23.54-2.35.61-3.38.22-1.02-.4-1.86-1.18-2.52-2.33m14-20.13c-1.08-1.89-2.43-3.13-4.05-3.72-1.62-.59-3.35-.47-5.19.36-1.84.84-3.61,2.39-5.32,4.65s-2.98,4.73-3.82,7.42c-.83,2.69-1.18,5.3-1.05,7.84s.73,4.74,1.79,6.61c.96,1.68,2.08,2.82,3.36,3.42s2.55.75,3.79.45l-2.54,3.35,2.58,4.52,17.05-22.5-2.58-4.52-2.48,3.27c.35-1.79.42-3.67.22-5.64-.2-1.97-.79-3.8-1.76-5.51"/>
          <path class="cls-1" d="m438.32,1189.32c-.94-1.65-2-2.82-3.15-3.53-1.16-.7-2.31-.89-3.45-.58-1.14.31-2.17,1.06-3.07,2.26-1.11,1.47-1.8,3.03-2.05,4.67-.25,1.65-.26,3.2,0,4.66.25,1.46.67,3.23,1.25,5.32.59,2.17.95,3.84,1.08,5.03.13,1.18-.12,2.19-.76,3.04-.6.79-1.29,1.09-2.07.9-.78-.19-1.53-.92-2.24-2.17s-1.02-2.53-.99-3.97c.03-1.44.38-2.67,1.06-3.7l-2.65-4.64c-1,1.41-1.69,3.07-2.08,4.95-.39,1.89-.44,3.83-.15,5.82.29,1.99.92,3.84,1.89,5.54s2.01,2.86,3.15,3.53c1.15.67,2.29.85,3.45.52,1.15-.32,2.21-1.13,3.18-2.41,1.08-1.47,1.74-3.01,1.98-4.61.24-1.6.24-3.14,0-4.6-.24-1.46-.64-3.19-1.21-5.2-.41-1.53-.69-2.72-.86-3.56-.17-.83-.22-1.67-.15-2.49.07-.83.33-1.54.79-2.14.58-.76,1.22-1.06,1.93-.89.71.17,1.4.84,2.08,2.02s1.01,2.46.96,3.77c-.05,1.31-.43,2.5-1.15,3.59l2.56,4.49c1.63-2.34,2.51-4.91,2.63-7.71.12-2.8-.53-5.43-1.93-7.9"/>
          <polyline class="cls-1" points="456.89 1222.69 454.24 1218.04 437.63 1228.86 447.14 1205.61 444.29 1200.62 432.39 1231.28 421.59 1237.82 424.24 1242.46 456.89 1222.69"/>
          <path class="cls-1" d="m465.34,1236.63c-.73-1.28-1.62-2.23-2.66-2.86-1.04-.62-2.13-.84-3.25-.65l1.95-2.57-2.56-4.49-17.05,22.5,2.56,4.49,9.53-12.58c1.53-2.01,2.97-3.07,4.35-3.16,1.38-.09,2.54.7,3.5,2.38s1.31,3.54,1.05,5.59c-.26,2.04-1.15,4.07-2.68,6.09l-9.53,12.58,2.54,4.44,10.05-13.27c1.55-2.04,2.65-4.16,3.31-6.36.66-2.21.88-4.35.67-6.44-.21-2.09-.81-3.98-1.78-5.69"/>
          <path class="cls-1" d="m478.89,1260.35c-1.18-2.07-2.59-3.43-4.23-4.07-1.64-.65-3.37-.55-5.22.3-1.85.85-3.65,2.44-5.4,4.75s-3.04,4.8-3.85,7.46c-.81,2.66-1.13,5.28-.95,7.84.18,2.57.86,4.88,2.05,6.95,1.47,2.57,3.21,4.05,5.21,4.43,2.01.38,4.06-.25,6.15-1.91l-2.76-4.84c-2.27,1.52-4.15.99-5.63-1.6-1.05-1.84-1.37-3.98-.96-6.43.41-2.45,1.53-4.89,3.37-7.31s3.57-3.76,5.22-4.02c1.64-.26,2.99.53,4.03,2.36.75,1.31,1.14,2.71,1.15,4.2.02,1.49-.28,2.99-.9,4.5l2.76,4.84c1.47-3,2.2-6,2.2-9.01,0-3.01-.75-5.83-2.25-8.45"/>
          <path class="cls-1" d="m336.28,1147.96l12.6-16.62,2.03,3.56c1.46,2.56,2.02,5.26,1.68,8.1-.34,2.85-1.51,5.59-3.51,8.22s-3.9,3.96-5.77,4.03c-1.87.08-3.53-1.17-4.99-3.73l-2.03-3.56m16.93-16.11l-4.08-7.15-17.2,22.7,4.08,7.15c1.33,2.33,2.84,3.91,4.52,4.76,1.68.85,3.44.9,5.27.16,1.83-.74,3.62-2.27,5.37-4.58s3.01-4.81,3.77-7.49c.77-2.69,1-5.37.7-8.04-.3-2.68-1.11-5.18-2.44-7.51"/>
          <path class="cls-1" d="m351.32,1174.53c-.52-.9-.82-2.01-.91-3.3-.09-1.3.08-2.66.51-4.09.43-1.43,1.11-2.76,2.05-4.01s1.89-2.07,2.86-2.48c.97-.41,1.85-.45,2.66-.12.81.33,1.48.95,2.01,1.88s.83,2.02.93,3.3c.09,1.27-.07,2.62-.48,4.02-.41,1.41-1.09,2.73-2.03,3.97s-1.9,2.08-2.88,2.51c-.98.43-1.88.49-2.7.17-.82-.32-1.49-.94-2.02-1.86m11.2-16.11c-.86-1.51-1.95-2.5-3.24-2.98-1.3-.48-2.68-.38-4.15.29-1.47.67-2.89,1.91-4.26,3.72s-2.39,3.79-3.06,5.93c-.67,2.15-.95,4.24-.84,6.27.11,2.03.58,3.8,1.43,5.29.77,1.34,1.67,2.25,2.69,2.74,1.03.48,2.04.6,3.03.36l-2.03,2.68,2.07,3.62,13.64-18-2.07-3.62-1.98,2.61c.28-1.43.34-2.94.18-4.51s-.63-3.04-1.41-4.41"/>
          <path class="cls-1" d="m376.27,1172.77l-2.07-3.62-3.39,4.47-1.17-2.04-2.3,3.04,1.17,2.04-7.55,9.96c-1.33,1.76-2.05,3.47-2.16,5.11-.1,1.64.31,3.27,1.23,4.89l1.62,2.83,2.35-3.1-1.26-2.2c-.42-.73-.6-1.4-.56-2,.05-.6.33-1.23.84-1.91l7.55-9.96,2.41,4.22,2.3-3.04-2.41-4.22,3.39-4.47"/>
          <path class="cls-1" d="m370.19,1207.57c-.52-.9-.82-2-.91-3.3-.09-1.3.08-2.66.51-4.09.43-1.43,1.11-2.77,2.05-4.01s1.89-2.07,2.86-2.48c.96-.41,1.85-.45,2.66-.12.81.33,1.48.95,2.01,1.88s.84,2.03.93,3.3c.09,1.28-.07,2.62-.48,4.02-.41,1.41-1.09,2.73-2.03,3.98s-1.9,2.08-2.88,2.51c-.98.43-1.88.49-2.7.17-.82-.32-1.49-.94-2.02-1.86m11.2-16.11c-.86-1.51-1.94-2.5-3.24-2.98-1.3-.48-2.68-.38-4.15.29-1.47.67-2.89,1.91-4.26,3.72s-2.39,3.79-3.05,5.94c-.67,2.15-.95,4.24-.84,6.27.11,2.03.58,3.79,1.43,5.28.77,1.34,1.67,2.25,2.69,2.74,1.03.48,2.04.6,3.03.36l-2.03,2.68,2.07,3.62,13.64-18-2.07-3.62-1.98,2.61c.28-1.43.34-2.94.18-4.51-.16-1.57-.63-3.04-1.41-4.41"/>
          <path class="cls-1" d="m393.01,1211.82c-.76-1.32-1.6-2.26-2.53-2.82-.93-.56-1.85-.72-2.76-.47-.91.25-1.73.86-2.46,1.82-.89,1.18-1.44,2.42-1.64,3.74-.2,1.31-.2,2.56,0,3.72.2,1.17.54,2.59,1,4.26.47,1.73.76,3.07.87,4.02.11.95-.1,1.76-.61,2.43-.48.63-1.03.87-1.65.72-.62-.16-1.22-.73-1.8-1.74s-.82-2.02-.79-3.17c.02-1.15.3-2.14.85-2.96l-2.12-3.71c-.8,1.13-1.36,2.45-1.66,3.96-.31,1.51-.35,3.06-.12,4.66.23,1.59.73,3.07,1.51,4.43s1.61,2.28,2.53,2.82c.91.54,1.83.68,2.76.42.92-.26,1.77-.9,2.55-1.93.86-1.17,1.39-2.4,1.58-3.69.19-1.28.2-2.51,0-3.68-.19-1.17-.51-2.55-.97-4.16-.32-1.23-.55-2.17-.69-2.84-.13-.67-.17-1.33-.12-1.99.06-.66.26-1.23.63-1.71.46-.61.98-.85,1.55-.71.57.13,1.12.67,1.66,1.62s.81,1.97.77,3.01c-.04,1.05-.35,2-.92,2.87l2.05,3.59c1.3-1.87,2-3.93,2.1-6.17s-.42-4.35-1.55-6.32"/>
          <polyline class="cls-1" points="407.87 1238.51 405.75 1234.8 392.46 1243.45 400.07 1224.86 397.79 1220.86 388.27 1245.39 379.63 1250.62 381.75 1254.33 407.87 1238.51"/>
          <path class="cls-1" d="m414.63,1249.68c-.59-1.03-1.3-1.79-2.13-2.29-.83-.5-1.7-.67-2.6-.52l1.56-2.06-2.05-3.59-13.64,18,2.05,3.59,7.62-10.06c1.22-1.61,2.38-2.45,3.48-2.53,1.1-.07,2.04.56,2.8,1.9s1.04,2.83.84,4.47c-.21,1.64-.92,3.26-2.14,4.87l-7.62,10.06,2.03,3.56,8.04-10.62c1.24-1.63,2.12-3.33,2.65-5.09.53-1.76.7-3.48.53-5.15-.17-1.67-.65-3.18-1.42-4.55"/>
          <path class="cls-1" d="m425.47,1268.65c-.95-1.66-2.08-2.74-3.38-3.26-1.31-.52-2.7-.44-4.18.25-1.48.68-2.92,1.95-4.32,3.8s-2.43,3.84-3.08,5.97c-.65,2.13-.9,4.22-.76,6.27.15,2.05.69,3.91,1.64,5.57,1.17,2.05,2.57,3.23,4.17,3.54,1.61.31,3.25-.21,4.92-1.53l-2.21-3.87c-1.82,1.22-3.32.8-4.51-1.28-.84-1.47-1.1-3.18-.77-5.14.33-1.96,1.23-3.91,2.69-5.84s2.86-3.01,4.17-3.22c1.31-.21,2.39.42,3.23,1.89.6,1.05.91,2.17.92,3.36.02,1.19-.22,2.39-.72,3.6l2.21,3.87c1.18-2.4,1.76-4.8,1.76-7.21,0-2.41-.6-4.66-1.8-6.76"/>
          <path class="cls-1" d="m312.58,1176.63l9.45-12.47,1.52,2.67c1.1,1.92,1.52,3.95,1.26,6.08-.26,2.13-1.13,4.19-2.63,6.16s-2.93,2.96-4.33,3.02c-1.4.05-2.65-.88-3.75-2.8l-1.52-2.67m12.7-12.08l-3.06-5.36-12.9,17.03,3.06,5.36c1,1.74,2.13,2.94,3.39,3.57,1.26.63,2.58.67,3.96.12,1.37-.56,2.72-1.7,4.03-3.43s2.26-3.61,2.83-5.62c.58-2.02.75-4.03.53-6.03-.22-2.01-.84-3.89-1.83-5.63"/>
          <path class="cls-1" d="m323.86,1196.55c-.39-.68-.61-1.5-.68-2.48-.07-.97.06-2,.38-3.07.32-1.07.83-2.07,1.54-3s1.42-1.55,2.15-1.86c.72-.31,1.39-.34,2-.09.61.25,1.11.72,1.5,1.41s.63,1.52.7,2.48c.07.96-.05,1.96-.36,3.02-.31,1.06-.81,2.05-1.52,2.98s-1.43,1.56-2.16,1.88c-.74.33-1.41.37-2.02.13s-1.12-.7-1.52-1.4m8.4-12.08c-.65-1.13-1.46-1.88-2.43-2.23-.97-.36-2.01-.29-3.11.22-1.1.5-2.17,1.43-3.19,2.79s-1.79,2.84-2.29,4.45c-.5,1.61-.71,3.19-.63,4.7.08,1.53.44,2.85,1.07,3.97.57,1.01,1.25,1.69,2.02,2.05.77.36,1.53.45,2.27.27l-1.52,2.01,1.55,2.71,10.23-13.5-1.55-2.71-1.49,1.96c.21-1.08.26-2.21.14-3.39-.12-1.18-.47-2.28-1.06-3.3"/>
          <path class="cls-1" d="m342.58,1195.24l-1.55-2.72-2.54,3.36-.88-1.53-1.73,2.28.88,1.53-5.66,7.47c-1,1.32-1.54,2.6-1.62,3.83-.07,1.23.23,2.45.92,3.67l1.21,2.12,1.76-2.33-.94-1.65c-.32-.55-.45-1.05-.41-1.5.04-.45.25-.92.63-1.43l5.66-7.47,1.81,3.16,1.73-2.28-1.81-3.16,2.54-3.36"/>
          <path class="cls-1" d="m338.01,1221.33c-.39-.68-.61-1.5-.68-2.48-.07-.97.06-2,.38-3.07.32-1.07.83-2.07,1.54-3s1.42-1.55,2.14-1.86c.72-.3,1.39-.34,2-.09.61.25,1.11.72,1.5,1.41s.63,1.52.7,2.48c.07.96-.05,1.96-.36,3.02-.31,1.06-.81,2.05-1.52,2.98s-1.43,1.56-2.16,1.88c-.74.33-1.41.37-2.02.13-.61-.24-1.12-.7-1.52-1.4m8.4-12.08c-.65-1.13-1.46-1.88-2.43-2.23-.97-.36-2.01-.28-3.11.22-1.1.5-2.17,1.43-3.19,2.79s-1.79,2.84-2.29,4.45c-.5,1.61-.71,3.18-.63,4.7.08,1.53.44,2.85,1.07,3.97.57,1.01,1.25,1.69,2.02,2.05.77.36,1.53.45,2.27.27l-1.52,2.01,1.55,2.71,10.23-13.5-1.55-2.71-1.49,1.96c.21-1.08.25-2.21.14-3.39-.12-1.18-.47-2.28-1.06-3.3"/>
          <path class="cls-1" d="m355.13,1224.52c-.57-.99-1.2-1.7-1.89-2.12-.7-.42-1.39-.54-2.07-.35-.69.19-1.3.64-1.85,1.36-.67.88-1.08,1.82-1.23,2.81-.15.99-.15,1.92,0,2.79.15.88.4,1.94.75,3.19.35,1.3.57,2.31.65,3.01.08.71-.07,1.32-.46,1.83-.36.47-.77.65-1.24.54-.47-.11-.92-.55-1.35-1.31s-.61-1.52-.6-2.38c.02-.87.23-1.61.64-2.22l-1.59-2.79c-.6.85-1.02,1.84-1.25,2.97-.23,1.13-.26,2.3-.09,3.49.17,1.19.55,2.3,1.13,3.33s1.21,1.71,1.89,2.11c.69.41,1.37.51,2.07.32.69-.19,1.33-.68,1.91-1.45.65-.88,1.04-1.8,1.19-2.76.14-.96.15-1.89,0-2.76-.14-.88-.38-1.91-.72-3.12-.24-.92-.42-1.63-.52-2.13-.1-.5-.13-1-.09-1.5.04-.5.2-.92.47-1.28.35-.46.73-.64,1.16-.54.42.1.84.51,1.24,1.21s.6,1.48.58,2.26-.26,1.5-.69,2.15l1.54,2.69c.98-1.4,1.5-2.94,1.57-4.62.07-1.68-.31-3.26-1.16-4.74"/>
          <polyline class="cls-1" points="366.27 1244.55 364.68 1241.76 354.72 1248.25 360.42 1234.3 358.71 1231.31 351.58 1249.7 345.09 1253.63 346.68 1256.41 366.27 1244.55"/>
          <path class="cls-1" d="m371.35,1252.92c-.44-.77-.97-1.34-1.6-1.72-.63-.37-1.28-.5-1.95-.39l1.17-1.54-1.54-2.69-10.23,13.5,1.54,2.69,5.72-7.55c.92-1.21,1.79-1.84,2.61-1.89.82-.05,1.53.42,2.1,1.43s.78,2.12.63,3.35c-.16,1.23-.69,2.44-1.61,3.65l-5.72,7.55,1.52,2.67,6.03-7.96c.93-1.22,1.59-2.5,1.98-3.82.4-1.32.53-2.61.4-3.86-.13-1.25-.49-2.39-1.07-3.41"/>
          <path class="cls-1" d="m379.47,1267.15c-.71-1.24-1.56-2.06-2.54-2.45-.98-.39-2.02-.33-3.13.18-1.11.51-2.19,1.46-3.24,2.85s-1.82,2.88-2.31,4.47c-.49,1.6-.68,3.17-.57,4.71s.52,2.93,1.23,4.18c.88,1.54,1.92,2.43,3.13,2.65,1.21.23,2.44-.15,3.69-1.14l-1.66-2.9c-1.36.92-2.49.6-3.38-.96-.63-1.1-.82-2.39-.58-3.86.25-1.47.92-2.93,2.02-4.38s2.15-2.26,3.13-2.42c.99-.15,1.79.32,2.42,1.42.45.78.68,1.63.69,2.52.01.89-.17,1.79-.54,2.7l1.66,2.9c.88-1.8,1.32-3.6,1.32-5.41s-.45-3.5-1.35-5.07"/>
        </g>
      </g>
    </g>
  </g>
</svg>